<svg xmlns="http://www.w3.org/2000/svg" xmlns:xlink="http://www.w3.org/1999/xlink" width="108px" height="108px" data-name="Layer 1" viewBox="0 0 43.75 56.23">
  <defs>
    <linearGradient id="a" x1="812.84" x2="812.84" y1="-607.84" y2="-797.84" gradientTransform="matrix(.22 0 0 -.22 -154.84 -130.61)" gradientUnits="userSpaceOnUse">
      <stop offset="0" stop-color="#00CC66"/>
      <stop offset="1" stop-color="#0066ff"/>
    </linearGradient>
    <linearGradient id="b" x1="807.34" x2="807.34" y1="-607.84" y2="-787.84" gradientTransform="matrix(.22 0 0 -.22 -157.03 -132.97)" xlink:href="#a"/>
  </defs>
  <path fill="url(#a)" d="M41.33 2.36v38.98H2.19v2.36h41.56V2.36h-2.42z"/>
  <path fill="url(#b)" d="M39.16 39.16V0H0v39.16H39.16z"/>
  <!-- iconun altindaki yazi icin -->
  <path fill="#0066ff" d="M3.23 56.14H.36v-.5a.21.21 0 01.18-.23l.68-.13v-6.83a6.11 6.11 0 01-.68-.14.21.21 0 01-.18-.23v-.5H3.6a5 5 0 011.41.18 2.37 2.37 0 011.77 2.48 2.44 2.44 0 01-.81 1.94 3.47 3.47 0 01-2.37.77H2.37v2.32c.09 0 .32.07.69.14a.21.21 0 01.17.23zm-.86-7.65V52H3.6a2.18 2.18 0 001.5-.48 1.67 1.67 0 00.53-1.3 1.67 1.67 0 00-.5-1.27 2.19 2.19 0 00-1.53-.46H2.37zm4.71 4.49a3.27 3.27 0 01.2-1.17 3.1 3.1 0 01.56-1 2.58 2.58 0 01.9-.64 2.92 2.92 0 011.18-.23 2.81 2.81 0 011 .18 2.14 2.14 0 01.79.52 2.47 2.47 0 01.53.85 3.54 3.54 0 01.19 1.14.76.76 0 01-.05.34c0 .06-.11.08-.22.08h-4a3.52 3.52 0 00.14 1 2 2 0 00.41.69 1.48 1.48 0 00.6.43 2 2 0 00.76.14 2.28 2.28 0 00.7-.08 4.67 4.67 0 00.5-.2l.36-.19a.46.46 0 01.23-.1.25.25 0 01.21.11l.3.4a2.21 2.21 0 01-.48.4 4.08 4.08 0 01-.59.3 6.36 6.36 0 01-.64.17 5.42 5.42 0 01-.66 0 3 3 0 01-1.16-.21 2.7 2.7 0 01-.92-.63 2.81 2.81 0 01-.6-1 4.23 4.23 0 01-.24-1.3zm1.09-.52h3.3a2.14 2.14 0 00-.11-.67 1.57 1.57 0 00-.29-.54 1.42 1.42 0 00-.49-.35 1.69 1.69 0 00-.66-.12 1.59 1.59 0 00-1.2.44 2.16 2.16 0 00-.55 1.24zm7.74 3.68h-2.79v-.5a.21.21 0 01.18-.27l.68-.13v-4.28l-.68-.14a.21.21 0 01-.18-.23v-.5h1.48a.3.3 0 01.22.06.55.55 0 01.1.23l.07.94a2 2 0 011.84-1.35 1.51 1.51 0 01.83.22l-.14.8c0 .1-.08.15-.15.15a1 1 0 01-.28-.06 1.88 1.88 0 00-.49-.06 1.66 1.66 0 00-1.56 1.27v3h.37l.31.06a.21.21 0 01.18.23zm2.18-8v-.53h2.85v.53c0 .13-.08.2-.24.23h-.28l-.34.07 2.19 5.45a5.35 5.35 0 01.28.93 6.14 6.14 0 01.28-1l2.16-5.44a6.11 6.11 0 01-.68-.14.21.21 0 01-.18-.23v-.5h2.83v.52a.18.18 0 01-.16.21l-.6.14-3.15 7.7h-1l-3.14-7.7a5.45 5.45 0 01-.61-.14.19.19 0 01-.21-.13zm9.51 6.23a4.51 4.51 0 010-2.59 3 3 0 01.59-1 2.71 2.71 0 01.92-.62 3 3 0 011.2-.22 3 3 0 011.19.22 2.82 2.82 0 01.92.62 2.76 2.76 0 01.57 1 4.1 4.1 0 010 2.59 2.62 2.62 0 01-.57 1 2.45 2.45 0 01-.92.62 3 3 0 01-1.19.22 3 3 0 01-1.2-.22 2.45 2.45 0 01-.92-.62 2.85 2.85 0 01-.59-1zm1-1.24a4.05 4.05 0 00.12.95 2 2 0 00.33.72 1.34 1.34 0 00.56.43 2 2 0 00.79.17 1.49 1.49 0 001.33-.6 2.83 2.83 0 00.45-1.68 2.87 2.87 0 00-.45-1.69 1.49 1.49 0 00-1.33-.6 2.07 2.07 0 00-.79.14 1.5 1.5 0 00-.56.46 2 2 0 00-.33.72 4.17 4.17 0 00-.12.98zm5.11-2.38v-.38l1-.13.18-1.87a.15.15 0 01.07-.14.29.29 0 01.17 0h.54v2.08h1.73v.78h-1.73v3.63a.75.75 0 00.17.57.67.67 0 00.49.18 1.2 1.2 0 00.27-.1l.2-.1H36.95a.24.24 0 01.12 0 .17.17 0 01.14.09l.31.51a2 2 0 01-.66.4 2.3 2.3 0 01-.81.14 1.49 1.49 0 01-1.1-.4 1.59 1.59 0 01-.35-1.33v-3.71h-.72a.29.29 0 01-.17 0 .22.22 0 01-.05-.22zm4.42 2.23a3.27 3.27 0 01.2-1.17 3.1 3.1 0 01.56-1 2.58 2.58 0 01.9-.64 2.92 2.92 0 011.18-.23 2.81 2.81 0 011 .18 2.14 2.14 0 01.79.52 2.47 2.47 0 01.53.85 3.54 3.54 0 01.19 1.14.76.76 0 010 .34c0 .06-.11.08-.22.08h-4a3.52 3.52 0 00.14 1 2 2 0 00.41.69 1.48 1.48 0 00.6.43 2 2 0 00.76.14 2.28 2.28 0 00.7-.08 4.67 4.67 0 00.5-.2l.36-.19a.46.46 0 01.23-.1.25.25 0 01.21.11l.3.4a2.21 2.21 0 01-.48.4 4.08 4.08 0 01-.59.3 6.36 6.36 0 01-.64.17 5.42 5.42 0 01-.66 0 3 3 0 01-1.16-.21 2.7 2.7 0 01-.92-.63 2.81 2.81 0 01-.6-1 4.23 4.23 0 01-.34-1.3zm1.09-.52h3.3a2.14 2.14 0 00-.11-.67 1.57 1.57 0 00-.29-.54 1.42 1.42 0 00-.49-.35 1.69 1.69 0 00-.66-.12 1.59 1.59 0 00-1.2.44 2.16 2.16 0 00-.6 1.24z"/>
  <!-- iconun icindeki yazi icin = PV -->
  <path fill="#fff" d="M10.8 28.18H5.66v-.9a.36.36 0 01.32-.4l1.22-.23V14.37c-.69-.13-1.1-.21-1.22-.25a.38.38 0 01-.32-.41v-.9h5.79a9.15 9.15 0 012.52.31 4.27 4.27 0 013.17 4.46 4.36 4.36 0 01-1.46 3.47 6.2 6.2 0 01-4.23 1.37H9.26v4.17a9.79 9.79 0 001.24.27.36.36 0 01.3.4zM9.26 14.47v6.3h2.19a3.89 3.89 0 002.68-.86 3 3 0 001-2.33 2.92 2.92 0 00-.9-2.26 3.88 3.88 0 00-2.72-.82H9.26zm8.71-.68v-.94h5.1v.94c0 .23-.14.37-.43.41l-.5.1-.61.13 3.92 9.75a10.94 10.94 0 01.52 1.67 10.34 10.34 0 01.49-1.69l3.88-9.79c-.69-.13-1.1-.21-1.23-.25a.38.38 0 01-.32-.41v-.9h5.07v.92a.34.34 0 01-.29.39l-1.08.25-5.62 13.85H25l-5.61-13.79c-.61-.13-1-.21-1.09-.25a.36.36 0 01-.33-.39z"/> 
</svg>